<svg width="158" height="60" viewBox="0 0 158 60" fill="none" xmlns="http://www.w3.org/2000/svg">
<path d="M77.0984 26.8021C84.2233 26.8021 89.9992 21.0261 89.9992 13.901C89.9992 6.77599 84.2233 1 77.0984 1C69.9734 1 64.1975 6.77599 64.1975 13.901C64.1975 21.0261 69.9734 26.8021 77.0984 26.8021Z" stroke="#00C24E" stroke-width="2" stroke-miterlimit="1.5" stroke-linecap="round" stroke-linejoin="round"/>
<path d="M77.5794 26.8025L77.4819 18.2065C77.4819 18.2065 80.5725 14.5636 81.2223 14.4986C81.8731 14.4336 83.1422 14.3352 83.1422 14.3352C83.1422 14.3352 83.1097 17.1983 82.7838 17.7182C82.4589 18.239 80.0841 20.9387 78.9785 21.1986C77.8728 21.4586 77.5173 21.3295 77.5173 21.3295" stroke="#00C24E" stroke-width="2" stroke-miterlimit="1.5" stroke-linecap="round" stroke-linejoin="round"/>
<path d="M77.4814 21.2313C77.4814 21.2313 74.2294 17.166 73.1552 17.166C72.082 17.166 69.8592 16.9778 69.8917 17.3677C69.9242 17.7585 71.2545 21.3756 72.2005 21.6614C74.2714 22.2864 76.8106 22.897 77.4814 22.5071" stroke="#00C24E" stroke-width="2" stroke-miterlimit="1.5" stroke-linecap="round" stroke-linejoin="round"/>
<path d="M5.871 54.9542C4.85767 54.9542 3.88867 54.8022 2.964 54.4982C2.03933 54.1816 1.311 53.7762 0.779 53.2822L1.482 51.8002C1.98867 52.2436 2.63467 52.6109 3.42 52.9022C4.20533 53.1936 5.02233 53.3392 5.871 53.3392C6.64367 53.3392 7.27067 53.2506 7.752 53.0732C8.23333 52.8959 8.588 52.6552 8.816 52.3512C9.044 52.0346 9.158 51.6799 9.158 51.2872C9.158 50.8312 9.006 50.4639 8.702 50.1852C8.41067 49.9066 8.02433 49.6849 7.543 49.5202C7.07433 49.3429 6.555 49.1909 5.985 49.0642C5.415 48.9376 4.83867 48.7919 4.256 48.6272C3.686 48.4499 3.16033 48.2282 2.679 47.9622C2.21033 47.6962 1.83033 47.3416 1.539 46.8982C1.24767 46.4422 1.102 45.8596 1.102 45.1502C1.102 44.4662 1.27933 43.8392 1.634 43.2692C2.00133 42.6866 2.55867 42.2242 3.306 41.8822C4.066 41.5276 5.02867 41.3502 6.194 41.3502C6.96667 41.3502 7.733 41.4516 8.493 41.6542C9.253 41.8569 9.91167 42.1482 10.469 42.5282L9.842 44.0482C9.272 43.6682 8.67033 43.3959 8.037 43.2312C7.40367 43.0539 6.78933 42.9652 6.194 42.9652C5.44667 42.9652 4.83233 43.0602 4.351 43.2502C3.86967 43.4402 3.515 43.6936 3.287 44.0102C3.07167 44.3269 2.964 44.6816 2.964 45.0742C2.964 45.5429 3.10967 45.9166 3.401 46.1952C3.705 46.4739 4.09133 46.6956 4.56 46.8602C5.04133 47.0249 5.567 47.1769 6.137 47.3162C6.707 47.4429 7.277 47.5886 7.847 47.7532C8.42967 47.9179 8.95533 48.1332 9.424 48.3992C9.90533 48.6652 10.2917 49.0199 10.583 49.4632C10.8743 49.9066 11.02 50.4766 11.02 51.1732C11.02 51.8446 10.8363 52.4716 10.469 53.0542C10.1017 53.6242 9.53167 54.0866 8.759 54.4412C7.999 54.7832 7.03633 54.9542 5.871 54.9542ZM13.7958 54.8022V41.5022H15.6958V54.8022H13.7958ZM19.6776 54.8022V41.5022H21.2356L27.2016 51.5532H26.3656L32.2556 41.5022H33.8136L33.8326 54.8022H32.0086L31.9896 44.3712H32.4266L27.1826 53.1872H26.3086L21.0266 44.3712H21.5016V54.8022H19.6776ZM37.8241 54.8022V41.5022H43.0111C44.1764 41.5022 45.1708 41.6859 45.9941 42.0532C46.8174 42.4206 47.4508 42.9526 47.8941 43.6492C48.3374 44.3459 48.5591 45.1756 48.5591 46.1382C48.5591 47.1009 48.3374 47.9306 47.8941 48.6272C47.4508 49.3112 46.8174 49.8432 45.9941 50.2232C45.1708 50.5906 44.1764 50.7742 43.0111 50.7742H38.8691L39.7241 49.8812V54.8022H37.8241ZM39.7241 50.0712L38.8691 49.1212H42.9541C44.1701 49.1212 45.0884 48.8616 45.7091 48.3422C46.3424 47.8229 46.6591 47.0882 46.6591 46.1382C46.6591 45.1882 46.3424 44.4536 45.7091 43.9342C45.0884 43.4149 44.1701 43.1552 42.9541 43.1552H38.8691L39.7241 42.2052V50.0712ZM51.3505 54.8022V41.5022H53.2505V53.1492H60.4515V54.8022H51.3505ZM64.4511 54.8022V49.7102L64.8881 50.8882L59.1691 41.5022H61.2021L66.0091 49.4252H64.9071L69.7331 41.5022H71.6141L65.9141 50.8882L66.3321 49.7102V54.8022H64.4511ZM82.5204 54.9542C81.5071 54.9542 80.5381 54.8022 79.6134 54.4982C78.6887 54.1816 77.9604 53.7762 77.4284 53.2822L78.1314 51.8002C78.6381 52.2436 79.2841 52.6109 80.0694 52.9022C80.8547 53.1936 81.6717 53.3392 82.5204 53.3392C83.2931 53.3392 83.9201 53.2506 84.4014 53.0732C84.8827 52.8959 85.2374 52.6552 85.4654 52.3512C85.6934 52.0346 85.8074 51.6799 85.8074 51.2872C85.8074 50.8312 85.6554 50.4639 85.3514 50.1852C85.0601 49.9066 84.6737 49.6849 84.1924 49.5202C83.7237 49.3429 83.2044 49.1909 82.6344 49.0642C82.0644 48.9376 81.4881 48.7919 80.9054 48.6272C80.3354 48.4499 79.8097 48.2282 79.3284 47.9622C78.8597 47.6962 78.4797 47.3416 78.1884 46.8982C77.8971 46.4422 77.7514 45.8596 77.7514 45.1502C77.7514 44.4662 77.9287 43.8392 78.2834 43.2692C78.6507 42.6866 79.2081 42.2242 79.9554 41.8822C80.7154 41.5276 81.6781 41.3502 82.8434 41.3502C83.6161 41.3502 84.3824 41.4516 85.1424 41.6542C85.9024 41.8569 86.5611 42.1482 87.1184 42.5282L86.4914 44.0482C85.9214 43.6682 85.3197 43.3959 84.6864 43.2312C84.0531 43.0539 83.4387 42.9652 82.8434 42.9652C82.0961 42.9652 81.4817 43.0602 81.0004 43.2502C80.5191 43.4402 80.1644 43.6936 79.9364 44.0102C79.7211 44.3269 79.6134 44.6816 79.6134 45.0742C79.6134 45.5429 79.7591 45.9166 80.0504 46.1952C80.3544 46.4739 80.7407 46.6956 81.2094 46.8602C81.6907 47.0249 82.2164 47.1769 82.7864 47.3162C83.3564 47.4429 83.9264 47.5886 84.4964 47.7532C85.0791 47.9179 85.6047 48.1332 86.0734 48.3992C86.5547 48.6652 86.9411 49.0199 87.2324 49.4632C87.5237 49.9066 87.6694 50.4766 87.6694 51.1732C87.6694 51.8446 87.4857 52.4716 87.1184 53.0542C86.7511 53.6242 86.1811 54.0866 85.4084 54.4412C84.6484 54.7832 83.6857 54.9542 82.5204 54.9542ZM90.4452 54.8022V41.5022H95.6322C96.7975 41.5022 97.7919 41.6859 98.6152 42.0532C99.4385 42.4206 100.072 42.9526 100.515 43.6492C100.959 44.3459 101.18 45.1756 101.18 46.1382C101.18 47.1009 100.959 47.9306 100.515 48.6272C100.072 49.3112 99.4385 49.8432 98.6152 50.2232C97.7919 50.5906 96.7975 50.7742 95.6322 50.7742H91.4902L92.3452 49.8812V54.8022H90.4452ZM92.3452 50.0712L91.4902 49.1212H95.5752C96.7912 49.1212 97.7095 48.8616 98.3302 48.3422C98.9635 47.8229 99.2802 47.0882 99.2802 46.1382C99.2802 45.1882 98.9635 44.4536 98.3302 43.9342C97.7095 43.4149 96.7912 43.1552 95.5752 43.1552H91.4902L92.3452 42.2052V50.0712ZM103.972 54.8022V41.5022H109.159C110.324 41.5022 111.318 41.6859 112.142 42.0532C112.965 42.4206 113.598 42.9526 114.042 43.6492C114.485 44.3459 114.707 45.1756 114.707 46.1382C114.707 47.1009 114.485 47.9306 114.042 48.6272C113.598 49.3112 112.965 49.8369 112.142 50.2042C111.318 50.5716 110.324 50.7552 109.159 50.7552H105.017L105.872 49.8812V54.8022H103.972ZM112.864 54.8022L109.482 49.9762H111.515L114.935 54.8022H112.864ZM105.872 50.0712L105.017 49.1402H109.102C110.318 49.1402 111.236 48.8806 111.857 48.3612C112.49 47.8292 112.807 47.0882 112.807 46.1382C112.807 45.1882 112.49 44.4536 111.857 43.9342C111.236 43.4149 110.318 43.1552 109.102 43.1552H105.017L105.872 42.2052V50.0712ZM123.78 54.9542C122.767 54.9542 121.823 54.7832 120.949 54.4412C120.088 54.0992 119.341 53.6242 118.707 53.0162C118.074 52.3956 117.58 51.6736 117.225 50.8502C116.871 50.0269 116.693 49.1276 116.693 48.1522C116.693 47.1769 116.871 46.2776 117.225 45.4542C117.58 44.6309 118.074 43.9152 118.707 43.3072C119.341 42.6866 120.088 42.2052 120.949 41.8632C121.811 41.5212 122.754 41.3502 123.78 41.3502C124.794 41.3502 125.725 41.5212 126.573 41.8632C127.435 42.1926 128.182 42.6676 128.815 43.2882C129.461 43.8962 129.955 44.6119 130.297 45.4352C130.652 46.2586 130.829 47.1642 130.829 48.1522C130.829 49.1402 130.652 50.0459 130.297 50.8692C129.955 51.6926 129.461 52.4146 128.815 53.0352C128.182 53.6432 127.435 54.1182 126.573 54.4602C125.725 54.7896 124.794 54.9542 123.78 54.9542ZM123.78 53.2632C124.515 53.2632 125.193 53.1366 125.813 52.8832C126.447 52.6299 126.991 52.2752 127.447 51.8192C127.916 51.3506 128.277 50.8059 128.53 50.1852C128.796 49.5646 128.929 48.8869 128.929 48.1522C128.929 47.4176 128.796 46.7399 128.53 46.1192C128.277 45.4986 127.916 44.9602 127.447 44.5042C126.991 44.0356 126.447 43.6746 125.813 43.4212C125.193 43.1679 124.515 43.0412 123.78 43.0412C123.033 43.0412 122.343 43.1679 121.709 43.4212C121.089 43.6746 120.544 44.0356 120.075 44.5042C119.607 44.9602 119.239 45.4986 118.973 46.1192C118.72 46.7399 118.593 47.4176 118.593 48.1522C118.593 48.8869 118.72 49.5646 118.973 50.1852C119.239 50.8059 119.607 51.3506 120.075 51.8192C120.544 52.2752 121.089 52.6299 121.709 52.8832C122.343 53.1366 123.033 53.2632 123.78 53.2632ZM139.243 54.9542C137.495 54.9542 136.121 54.4539 135.12 53.4532C134.12 52.4526 133.619 50.9896 133.619 49.0642V41.5022H135.519V48.9882C135.519 50.4702 135.842 51.5532 136.488 52.2372C137.147 52.9212 138.072 53.2632 139.262 53.2632C140.466 53.2632 141.39 52.9212 142.036 52.2372C142.695 51.5532 143.024 50.4702 143.024 48.9882V41.5022H144.867V49.0642C144.867 50.9896 144.367 52.4526 143.366 53.4532C142.378 54.4539 141.004 54.9542 139.243 54.9542ZM151.162 54.8022V43.1552H146.602V41.5022H157.603V43.1552H153.043V54.8022H151.162Z" fill="#00C24E"/>
</svg>
